<svg xmlns="http://www.w3.org/2000/svg" viewBox="0 0 1920 1080" width="1920" height="1080" role="img" aria-label="Golden-hour exterior of an owned community">
  <defs>
    <linearGradient id="g" x1="0" y1="0" x2="1" y2="1">
      <stop offset="0" stop-color="#023D7A"/>
      <stop offset="0.55" stop-color="#003466"/>
      <stop offset="1" stop-color="#011E3C"/>
    </linearGradient>
    <radialGradient id="glow" cx="0.78" cy="0.16" r="0.7">
      <stop offset="0" stop-color="#1898E2" stop-opacity="0.34"/>
      <stop offset="1" stop-color="#1898E2" stop-opacity="0"/>
    </radialGradient>
    <pattern id="win" width="73" height="60" patternUnits="userSpaceOnUse">
      <rect x="0" y="0" width="6" height="4" fill="#ffffff" opacity="0.055"/>
    </pattern>
  </defs>
  <rect width="1920" height="1080" fill="url(#g)"/>
  <rect width="1920" height="1080" fill="url(#win)"/>
  <rect width="1920" height="1080" fill="url(#glow)"/>
  <g opacity="0.13" fill="#ffffff">
    <rect x="-20" y="808" width="117" height="272"/>
    <rect x="103" y="946" width="106" height="134"/>
    <rect x="215" y="953" width="147" height="127"/>
    <rect x="368" y="884" width="136" height="196"/>
    <rect x="510" y="854" width="143" height="226"/>
    <rect x="659" y="858" width="189" height="222"/>
    <rect x="854" y="881" width="117" height="199"/>
    <rect x="977" y="935" width="198" height="145"/>
    <rect x="1181" y="876" width="187" height="204"/>
    <rect x="1374" y="919" width="154" height="161"/>
    <rect x="1534" y="870" width="101" height="210"/>
    <rect x="1641" y="809" width="107" height="271"/>
    <rect x="1754" y="852" width="139" height="228"/>
    <rect x="1899" y="906" width="216" height="174"/>
  </g>
  <g transform="translate(960 540)" text-anchor="middle">
    <rect x="-72" y="-55" width="11" height="11" fill="#B08D4F"/>
    <rect x="-50" y="-55" width="11" height="11" fill="#B08D4F"/>
    <rect x="-28" y="-55" width="11" height="11" fill="#B08D4F"/>
    <rect x="-6" y="-55" width="11" height="11" fill="#B08D4F"/>
    <rect x="16" y="-55" width="11" height="11" fill="#B08D4F"/>
    <rect x="38" y="-55" width="11" height="11" fill="#B08D4F"/>
    <rect x="60" y="-55" width="11" height="11" fill="#B08D4F"/>
    <text y="0" font-family="Georgia, serif" font-size="51" fill="#D9BE87" letter-spacing="5">HERO</text>
    <text y="76" font-family="Helvetica, Arial, sans-serif" font-size="35" fill="#ffffff" opacity="0.62">Golden-hour exterior of an owned community</text>
    <text y="134" font-family="Helvetica, Arial, sans-serif" font-size="27" fill="#ffffff" opacity="0.34">PLACEHOLDER 1920 x 1080 &#183; REPLACE BEFORE LAUNCH</text>
  </g>
</svg>
